# xmcd
#
# Track frame offsets: 
#        150
#        22350
#        41597
#        57545
#        74492
#        90782
#        104805
#        121287
#        139282
#        156515
#        169757
#        189065
#        204685
#
# Disc length: 2878 seconds
#
# Revision: 2
# Processed by: cddbd v1.5.2PL0 Copyright (c) Steve Scherf et al.
# Submitted via: ExactAudioCopy v1.0b1
#
DISCID=c20b3c0d
DTITLE=Norman Beaker - " The Older I Get...The Better I Was"
DYEAR=1997
DGENRE=R&B
TTITLE0=A Little Hollywood
TTITLE1=Give It A Try
TTITLE2=Lies Like A River
TTITLE3=Too Much Too Soon
TTITLE4=New Version Of You
TTITLE5=Let It Be Me
TTITLE6=Two People
TTITLE7=Let The World Take The Blame
TTITLE8=Standing On Shaky Ground
TTITLE9=Make Her Feel A Woman Again
TTITLE10=The Wrong Man
TTITLE11=Heading For The Ghetto
TTITLE12=A Gourmet Dinner In A Takeaway
EXTD=
EXTT0=
EXTT1=
EXTT2=
EXTT3=
EXTT4=
EXTT5=
EXTT6=
EXTT7=
EXTT8=
EXTT9=
EXTT10=
EXTT11=
EXTT12=
PLAYORDER=
